# Blender v2.79 (sub 0) OBJ File: 'road.blend'
# www.blender.org
mtllib road_straight.mtl
o Straight_Cube.001
v -1.500000 0.000000 1.500000
v -1.500000 0.100000 1.500000
v -1.500000 0.000000 -1.500000
v -1.500000 0.100000 -1.500000
v 1.500000 0.000000 1.500000
v 1.500000 0.100000 1.500000
v 1.500000 0.000000 -1.500000
v 1.500000 0.100000 -1.500000
v -0.500000 0.100000 -1.500000
v -0.500000 0.100000 1.500000
v -1.500000 0.200000 1.500000
v -1.500000 0.200000 -1.500000
v -0.500000 0.200000 1.500000
v -0.500000 0.200000 -1.500000
v -0.600000 0.200000 1.500000
v -0.600000 0.200000 -1.500000
vt 0.022043 0.076097
vt 0.044609 0.030965
vt 0.022043 0.030965
vt 0.025291 0.074197
vt 0.040335 0.074197
vt 0.040335 0.029066
vt 0.017770 0.029066
vt 0.029565 0.076097
vt 0.039171 0.057002
vt 0.017034 0.034865
vt 0.017034 0.057002
vt 0.600586 0.976562
vt 0.629883 0.097656
vt 0.600586 0.097656
vt 0.595703 0.097656
vt 0.009766 0.976562
vt 0.009766 0.097656
vt 0.961914 0.097656
vt 0.668945 0.976562
vt 0.668945 0.097656
vt 0.030590 0.027167
vt 0.030590 0.072298
vt 0.037360 0.072298
vt 0.019669 0.032390
vt 0.042235 0.077521
vt 0.042235 0.032390
vt 0.027191 0.032390
vt 0.027191 0.077521
vt 0.026439 0.077521
vt 0.634766 0.976562
vt 0.664062 0.097749
vt 0.664062 0.976512
vt 0.044609 0.076097
vt 0.017770 0.029066
vt 0.017770 0.074197
vt 0.017770 0.074197
vt 0.044609 0.030965
vt 0.044609 0.076097
vt 0.039171 0.034865
vt 0.629883 0.976562
vt 0.595703 0.976562
vt 0.961914 0.976562
vt 0.038112 0.072298
vt 0.038112 0.027167
vt 0.019669 0.077521
vt 0.634766 0.097749
vn -1.0000 0.0000 0.0000
vn 0.0000 0.0000 -1.0000
vn 1.0000 0.0000 0.0000
vn 0.0000 0.0000 1.0000
vn 0.0000 -1.0000 0.0000
vn 0.0000 1.0000 0.0000
usemtl Material.001
s off
f 2/1/1 3/2/1 1/3/1
f 9/4/2 8/5/2 7/6/2
f 8/5/3 5/7/3 7/6/3
f 10/8/4 2/1/4 1/3/4
f 7/9/5 1/10/5 3/11/5
f 9/12/3 13/13/3 10/14/3
f 9/15/6 6/16/6 8/17/6
f 12/18/6 15/19/6 16/20/6
f 4/21/2 12/22/2 16/23/2
f 2/24/1 12/25/1 4/26/1
f 10/27/4 13/28/4 15/29/4
f 16/30/6 13/31/6 14/32/6
f 2/1/1 4/33/1 3/2/1
f 7/6/2 3/34/2 9/4/2
f 3/34/2 4/35/2 9/4/2
f 8/5/3 6/36/3 5/7/3
f 1/3/4 5/37/4 10/8/4
f 5/37/4 6/38/4 10/8/4
f 7/9/5 5/39/5 1/10/5
f 9/12/3 14/40/3 13/13/3
f 9/15/6 10/41/6 6/16/6
f 12/18/6 11/42/6 15/19/6
f 14/43/2 9/44/2 16/23/2
f 9/44/2 4/21/2 16/23/2
f 2/24/1 11/45/1 12/25/1
f 11/45/4 2/24/4 15/29/4
f 2/24/4 10/27/4 15/29/4
f 16/30/6 15/46/6 13/31/6
