# Blender v2.79 (sub 0) OBJ File: 'road.blend'
# www.blender.org
mtllib road_corner.mtl
o Curve_Cube
v 1.500000 0.000000 -1.500000
v 1.500000 0.000000 1.500000
v -1.500000 0.000000 1.499999
v -1.499999 0.000000 -1.500001
v 1.500002 0.100000 -1.499999
v 1.499998 0.100000 1.500002
v -1.500001 0.100000 1.499999
v -1.500000 0.100000 -1.500000
v 1.500000 0.100000 -0.500000
v -0.500000 0.100000 -1.500000
v -0.500000 0.100000 1.500000
v -1.500000 0.100000 -0.500000
v -0.535001 0.100000 -0.534999
v -0.500000 0.200000 -1.500000
v -1.500000 0.200000 -1.500000
v -1.500000 0.200000 -0.500000
v -0.535001 0.200000 -0.534999
v -0.500002 0.100000 -0.399999
v -0.500000 0.100000 -0.599999
v -0.400001 0.100000 -0.499999
v -0.600001 0.100000 -0.500000
v -0.500000 0.200000 -0.599999
v -0.600001 0.200000 -0.500000
v -0.512501 0.100000 -0.562499
v -0.562501 0.100000 -0.512500
v -0.512501 0.200000 -0.562499
v -0.562501 0.200000 -0.512500
v -0.512501 0.100000 -0.462499
v -0.462501 0.100000 -0.512499
v -0.600001 0.200000 -1.500000
v -0.600001 0.200000 -0.500000
v -1.500000 0.200000 -0.600000
v -0.500000 0.200000 -0.600000
v -0.600001 0.200000 -0.600000
v -0.600001 0.200000 -1.500000
v -1.500000 0.200000 -1.500000
v -1.500000 0.200000 -0.600000
v -0.600001 0.200000 -0.600000
vt 0.000000 0.000000
vt 0.000000 0.000000
vt 0.000000 0.000000
vt 0.000000 0.000000
vt 0.505570 0.974558
vt 0.042991 0.974558
vt 0.042990 0.097055
vt 0.556969 0.097054
vt 0.556967 0.923160
vt 0.259254 0.042202
vt 0.256210 0.041399
vt 0.258218 0.042218
vt 0.258218 0.042218
vt 0.258950 0.042538
vt 0.258539 0.044041
vt 0.258539 0.044041
vt 0.258815 0.042939
vt 0.259626 0.051860
vt 0.256942 0.045778
vt 0.258731 0.042983
vt 0.255583 0.041604
vt 0.345863 0.670798
vt 0.321701 0.678297
vt 0.329199 0.654135
vt 0.329199 0.687462
vt 0.189325 0.090148
vt 0.180607 0.079541
vt 0.182944 0.078431
vt 0.178935 0.065657
vt 0.178935 0.065657
vt 0.629883 0.961914
vt 0.629883 0.976562
vt 0.600586 0.976562
vt 0.600586 0.961914
vt 0.629883 0.597656
vt 0.629883 0.976562
vt 0.600586 0.976562
vt 0.600586 0.597656
vt 0.600586 0.597656
vt 0.629883 0.917969
vt 0.629883 0.932617
vt 0.600586 0.932617
vt 0.600586 0.917969
vt 0.629883 0.683594
vt 0.629883 0.976562
vt 0.600586 0.976562
vt 0.600586 0.976562
vt 0.600586 0.683594
vt 0.000000 0.000000
vt 0.000000 0.000000
vt 0.000000 0.000000
vt 0.000000 0.000000
vt 0.009423 0.265027
vt 0.594724 0.265030
vt 0.594726 0.882159
vt 0.520371 0.956514
vt 0.009422 0.956512
vt 0.519141 0.490625
vt 0.521094 0.846875
vt 0.455469 0.928125
vt 0.187891 0.928125
vt 0.186328 0.482031
vt 0.312536 0.670799
vt 0.300039 0.666633
vt 0.333365 0.633307
vt 0.629883 0.932617
vt 0.629883 0.947266
vt 0.600586 0.947266
vt 0.600586 0.932617
vt 0.629883 0.947266
vt 0.600586 0.947266
vt 0.366692 0.666633
vt 0.333365 0.699959
vt 0.634766 0.683594
vt 0.664062 0.683594
vt 0.664062 0.976562
vt 0.634766 0.976562
vt 0.635258 0.976562
vt 0.644028 0.968134
vt 0.647661 0.956996
vt 0.652238 0.950813
vt 0.664062 0.947266
vt 0.664062 0.947266
vt 0.664062 0.976562
vt 0.634766 0.976562
vt 0.664062 0.976562
vt 0.634766 0.976562
vt 0.634766 0.683594
vt 0.664062 0.683594
vt 0.668945 0.390625
vt 0.668945 0.097656
vt 0.961914 0.097656
vt 0.668945 0.097656
vt 0.000000 0.000000
vt 0.000000 0.000000
vt 0.000000 0.000000
vt 0.000000 0.000000
vn 0.0000 -1.0000 0.0000
vn 0.0000 1.0000 0.0000
vn 1.0000 0.0000 0.0000
vn -0.0000 -0.0000 1.0000
vn -1.0000 -0.0000 -0.0000
vn 0.0000 0.0000 -1.0000
vn 0.6332 0.0000 0.7740
vn 0.9487 0.0000 0.3162
vn 0.7740 0.0000 0.6332
vn 0.3162 0.0000 0.9487
usemtl Material
s off
f 1/1/1 2/2/1 3/3/1 4/4/1
f 21/5/2 12/6/2 7/7/2 11/8/2 18/9/2
f 1/10/3 5/11/3 9/12/3 6/13/3 2/14/3
f 2/14/4 6/13/4 11/15/4 7/16/4 3/17/4
f 3/17/5 7/16/5 12/18/5 8/19/5 4/20/5
f 5/11/6 1/10/6 4/20/6 8/19/6 10/21/6
f 29/22/2 13/23/2 28/24/2
f 29/22/2 24/25/2 13/23/2
f 8/19/5 12/18/5 16/26/5 32/27/5 15/28/5
f 10/21/6 8/19/6 15/28/6 30/29/6 14/30/6
f 25/31/7 13/32/7 17/33/7 27/34/7
f 19/35/3 10/36/3 14/37/3 33/38/3 22/39/3
f 24/40/8 19/41/8 22/42/8 26/43/8
f 12/44/4 21/45/4 23/46/4 31/47/4 16/48/4
f 32/49/4 34/50/4 38/51/4 37/52/4
f 5/53/2 10/54/2 19/55/2 20/56/2 9/57/2
f 9/58/2 20/59/2 18/60/2 11/61/2 6/62/2
f 25/63/2 21/64/2 18/65/2 28/24/2
f 13/23/2 25/63/2 28/24/2
f 13/66/9 24/67/9 26/68/9 17/69/9
f 21/70/10 25/31/10 27/34/10 23/71/10
f 20/72/2 19/73/2 24/25/2 29/22/2
f 20/72/2 29/22/2 28/24/2 18/65/2
f 34/74/2 33/75/2 14/76/2 30/77/2
f 23/78/2 27/79/2 17/80/2 26/81/2 22/82/2 33/83/2 34/84/2 31/85/2
f 31/86/2 34/87/2 32/88/2 16/89/2
f 38/90/2 35/91/2 36/92/2 37/93/2
f 34/50/4 30/94/4 35/95/4 38/51/4
f 30/94/4 15/96/4 36/97/4 35/95/4
f 15/96/4 32/49/4 37/52/4 36/97/4
