# Blender v2.76 (sub 0) OBJ File: 'brick_floor.blend'
# www.blender.org
mtllib brick_floor.mtl
o Cube_Cube.001
v -4.000000 0.007514 4.000000
v -4.000000 2.007514 4.000000
v -4.000000 0.007514 -4.000000
v -4.000000 2.007514 -4.000000
v 4.000000 0.007514 4.000000
v 4.000000 2.007514 4.000000
v 4.000000 0.007514 -4.000000
v 4.000000 2.007514 -4.000000
vt 0.000000 0.000000
vt 1.000000 0.000000
vt 1.000000 0.500000
vt 0.000000 0.500000
vt 1.000000 1.000000
vt 0.000000 1.000000
vn -1.000000 0.000000 0.000000
vn 0.000000 0.000000 -1.000000
vn 1.000000 0.000000 0.000000
vn 0.000000 0.000000 1.000000
vn 0.000000 -1.000000 0.000000
vn 0.000000 1.000000 0.000000
usemtl Material.002
s off
f 2/1/1 4/2/1 3/3/1 1/4/1
f 4/3/2 8/4/2 7/1/2 3/2/2
f 8/3/3 6/4/3 5/1/3 7/2/3
f 6/1/4 2/2/4 1/3/4 5/4/4
f 1/3/5 3/5/5 7/6/5 5/4/5
f 6/4/6 8/3/6 4/5/6 2/6/6
